<?xml version="1.0" standalone="no"?>
<!DOCTYPE svg PUBLIC "-//W3C//DTD SVG 20010904//EN"
 "http://www.w3.org/TR/2001/REC-SVG-20010904/DTD/svg10.dtd">
<svg version="1.0" xmlns="http://www.w3.org/2000/svg"
 width="192.000000pt" height="86.000000pt" viewBox="0 0 192.000000 86.000000"
 preserveAspectRatio="xMidYMid meet">

<g transform="translate(0.000000,86.000000) scale(0.100000,-0.100000)"
fill="#000000" stroke="none">
<path d="M0 435 l0 -425 955 0 955 0 0 425 0 425 -637 0 -638 0 -129 -170
c-71 -93 -134 -177 -141 -186 -10 -14 -33 12 -154 170 -136 178 -144 186 -177
186 l-34 0 0 -425z m1326 -1 l-1 -367 -632 -4 -633 -3 0 332 1 333 24 -30 c14
-16 78 -101 143 -187 64 -86 121 -156 125 -155 8 2 61 69 248 315 l101 132
313 0 312 0 -1 -366z m493 254 c-1 -93 -3 -107 -11 -78 -24 84 -41 120 -74
154 l-35 36 61 0 60 0 -1 -112z m-198 59 c63 -34 103 -102 102 -172 -2 -92
-60 -172 -141 -195 -20 -5 -67 -10 -104 -10 l-68 0 0 200 0 200 83 0 c68 0 92
-4 128 -23z m189 -681 c-18 -18 -42 6 -117 122 l-72 111 44 27 c81 47 120 104
142 209 5 26 9 -44 11 -209 1 -164 -1 -253 -8 -260z m-208 111 c37 -59 68
-110 68 -112 0 -3 -58 -5 -130 -5 l-130 0 0 115 0 116 62 -3 62 -3 68 -108z"/>
</g>
</svg>
